<?xml version="1.0" encoding="utf-8"?>
<!-- Generator: Adobe Illustrator 24.0.1, SVG Export Plug-In . SVG Version: 6.00 Build 0)  -->
<svg version="1.1" xmlns="http://www.w3.org/2000/svg" xmlns:xlink="http://www.w3.org/1999/xlink" x="0px" y="0px"
	 viewBox="0 0 128 128" style="enable-background:new 0 0 128 128;" xml:space="preserve">
<style type="text/css">
	.st0{display:none;fill:#FFFFFF;}
	.st1{display:none;fill:#9CBBBD;}
	.st2{fill:#2F95D0;}
	.st3{fill:#2678A8;}
	.st4{display:none;}
	.st5{display:inline;}
	.st6{fill:#18516B;}
	.st7{fill:#FFFFFF;}
	.st8{fill:#18516B;stroke:#FFFFFF;stroke-miterlimit:10;}
	.st9{display:none;fill:#18516B;stroke:#FFFFFF;stroke-miterlimit:10;}
</style>
<g id="Background">
	<g transform="matrix( 1, 0, 0, 1, -70,-70) ">
		<g>
			<g id="Layer0_19_FILL">
				<path class="st0" d="M73.7,154h-4v28.1c0,10.6,5.3,15.9,15.9,15.9h28.1v-4H85.6c-7.9,0-11.9-4-11.9-11.9V154 M113.7,70H85.6
					C75,70,69.7,75.3,69.7,85.9V114h4V85.9c0-7.9,4-11.9,11.9-11.9h28.1V70 M197.7,154h-4v28.1c0,7.9-4,11.9-11.9,11.9h-28.1v4h28.1
					c10.6,0,15.9-5.3,15.9-15.9V154 M153.7,74h28.1c7.9,0,11.9,4,11.9,11.9V114h4V85.9c0-10.6-5.3-15.9-15.9-15.9h-28.1V74z"/>
				<path class="st1" d="M81.7,154h-8v28.1c0,7.9,4,11.9,11.9,11.9h28.1v-8H85.6c-2.6,0-3.9-1.3-3.9-3.9V154 M113.7,74H85.6
					c-7.9,0-11.9,4-11.9,11.9V114h8V85.9c0-2.6,1.3-3.9,3.9-3.9h28.1V74 M193.7,154h-8v28.1c0,2.6-1.3,3.9-3.9,3.9h-28.1v8h28.1
					c7.9,0,11.9-4,11.9-11.9V154 M181.8,74h-28.1v8h28.1c2.6,0,3.9,1.3,3.9,3.9V114h8V85.9C193.7,78,189.7,74,181.8,74z"/>
				<path class="st2" d="M165.7,110c0-5.3-2.6-8-7.9-8h-48.1c-5.3,0-8,2.7-8,8v48.1c0,5.3,2.7,7.9,8,7.9h48.1c5.3,0,7.9-2.6,7.9-7.9
					V110 M155.7,112v44h-44v-44H155.7"/>
				<path class="st3" d="M155.7,156v-44h-44v44H155.7"/>
			</g>
		</g>
	</g>
</g>
<g id="Bomb" class="st4">
	<g class="st5">
		<path class="st6" d="M64.5,80.1c-3.9,0-7.2-1.4-9.9-4.1c-2.3-2.3-3.6-5.1-4-8.3c0-0.3,0-0.5,0-0.8c0-0.2,0-0.4,0-0.6v-1.1
			c0-0.5,0-1.1,0.1-1.6c0.2-2.2,1.1-4.4,2.5-6.5l-1.2-2.1c-0.1-0.2-0.2-0.5-0.3-0.7c-0.2-0.6-0.3-1.7,1.2-2.5l0.1,0
			c-0.2,0-0.4,0.1-0.6,0.3l0,0l-0.1,0c-0.1,0-0.2,0.1-0.3,0.1l-0.1,0h-0.1c-0.1,0-0.3,0-0.4,0c-0.6-0.1-1.1-0.4-1.4-0.7
			c-0.4-0.4-0.5-1-0.3-1.6c0.1-0.2,0.1-0.4,0.3-0.5c0.8-0.8,1.8-1.1,3-1.1c1.2,0,2.5,0.4,4,1.1l0.9-0.5c0.4-0.3,0.9-0.4,1.3-0.4
			c0.2,0,0.4,0,0.5,0.1c0.5,0.1,1,0.5,1.4,1.2l1,1.7c0.8-0.1,1.6-0.2,2.5-0.2c3.8,0,7.1,1.4,9.8,4.1c2.7,2.7,4.1,6,4.1,9.8v1.7
			c-0.2,3.6-1.6,6.6-4.1,9.1C71.7,78.8,68.4,80.1,64.5,80.1z"/>
		<g>
			<path class="st7" d="M52.9,48.8c1.1,0,2.5,0.4,4,1.2l1.2-0.7c0.4-0.2,0.7-0.3,1.1-0.3c0.1,0,0.3,0,0.4,0.1
				c0.4,0.1,0.8,0.4,1.1,0.9l1.1,2c0.9-0.2,1.8-0.3,2.8-0.3c3.7,0,6.9,1.3,9.5,4c2.6,2.6,4,5.8,4,9.5c0,0,0,0.1,0,0.1v0.4
				c0,0,0,0.1,0,0.1c0,0,0,0.1,0,0.1c0,0.1,0,0.2,0,0.2v0c0,0,0,0.1,0,0.1v0.5c0,0,0,0.1,0,0.1v0c-0.2,3.4-1.5,6.3-4,8.8
				c-2.6,2.6-5.8,3.9-9.5,3.9c-3.7,0-6.9-1.3-9.5-3.9c-2.2-2.3-3.5-4.9-3.8-8c0-0.2,0-0.5,0-0.7c0-0.2,0-0.4,0-0.6
				c0-0.1,0-0.1,0-0.2v0c0-0.1,0-0.2,0-0.3c0-0.1,0-0.1,0-0.2c0-0.1,0-0.2,0-0.3c0-0.1,0-0.1,0-0.2c0-0.5,0-1,0.1-1.5
				c0.2-2.3,1.1-4.4,2.6-6.5l-1.4-2.4c-0.1-0.2-0.2-0.4-0.2-0.6c-0.3-0.8,0-1.5,0.9-2l1.2-0.7c-0.4-0.2-0.8-0.3-1.2-0.3
				c-0.4,0-0.8,0.1-1.1,0.4c-0.1,0-0.1,0.1-0.2,0.1c-0.1,0-0.2,0-0.2,0c-0.5-0.1-0.9-0.3-1.1-0.5c-0.3-0.3-0.4-0.7-0.2-1.1
				c0-0.1,0.1-0.2,0.1-0.2C51,49.1,51.9,48.8,52.9,48.8 M52.9,47.8C52.9,47.8,52.9,47.8,52.9,47.8c-1.3,0-2.4,0.4-3.3,1.3
				c-0.2,0.2-0.3,0.4-0.4,0.7c-0.2,0.8,0,1.5,0.4,2.1c0.3,0.4,0.9,0.7,1.6,0.9c-0.3,0.6-0.3,1.2-0.1,1.8c0.1,0.2,0.2,0.5,0.3,0.8
				l1.1,1.8c-1.4,2-2.2,4.2-2.4,6.4c-0.1,0.5-0.1,1.1-0.1,1.6v0.2v0.3v0.2v0.3v0.2c0,0.2,0,0.5,0,0.7c0,0.2,0,0.5,0,0.7
				c0.4,3.3,1.7,6.2,4.1,8.6c2.8,2.8,6.3,4.2,10.3,4.2c4,0,7.4-1.4,10.2-4.2c2.6-2.6,4.1-5.8,4.3-9.4l0,0v0v-0.1v-0.5v-0.1v-0.3
				v-0.1v-0.1v-0.4v-0.1c0-4-1.4-7.4-4.3-10.2c-2.8-2.8-6.2-4.3-10.2-4.3c-0.8,0-1.5,0.1-2.2,0.2l-0.8-1.4c-0.5-0.8-1-1.2-1.7-1.4
				c-0.2-0.1-0.4-0.1-0.7-0.1c-0.5,0-1,0.2-1.6,0.5l-0.7,0.4C55.4,48.2,54.1,47.8,52.9,47.8L52.9,47.8L52.9,47.8z"/>
		</g>
	</g>
</g>
<g id="X_Bomb" class="st4">
	<g class="st5">
		<polygon class="st6" points="58.5,83.5 58.5,69.5 44.5,69.5 44.5,58.5 58.5,58.5 58.5,44.5 69.5,44.5 69.5,58.5 83.5,58.5 
			83.5,69.5 69.5,69.5 69.5,83.5 		"/>
		<path class="st7" d="M69,45v14h14v10H69v14H59V69H45V59h14V45H69 M70,44h-1H59h-1v1v13H45h-1v1v10v1h1h13v13v1h1h10h1v-1V70h13h1
			v-1V59v-1h-1H70V45V44L70,44z"/>
	</g>
</g>
<g id="Ebene_5">
	<circle class="st8" cx="64" cy="64" r="5.6"/>
	<path class="st4" d="M64,64"/>
	<polygon class="st9" points="64,44 81.3,54 81.3,74 64,84 46.7,74 46.7,54 	"/>
	<g id="Ebene_4">
		<g>
			<path class="st8" d="M72.5,64c0,3.1-1.7,5.9-4.2,7.3l5.5,9.5c5.7-3.4,9.4-9.6,9.4-16.7c0,0,0-0.1,0-0.1L72.5,64
				C72.5,64,72.5,64,72.5,64z"/>
			<path class="st8" d="M54.1,81.1l5.6-9.7c-2.5-1.5-4.2-4.2-4.2-7.3l-11.3,0c0,0,0,0.1,0,0.1C44.2,71.4,48.2,77.7,54.1,81.1z"/>
			<path class="st8" d="M64,55.5c1.5,0,3,0.4,4.2,1.1l5.3-9.3c-2.9-1.7-6.3-2.7-9.9-2.7c-3.4,0-6.6,0.9-9.4,2.4l5.5,9.5
				C61,56,62.5,55.5,64,55.5z"/>
		</g>
		<circle class="st9" cx="64" cy="64" r="17.5"/>
	</g>
	<g id="Ebene_6">
	</g>
</g>
</svg>
