<svg xmlns="http://www.w3.org/2000/svg" viewBox="0 0 128 128"><defs><style>.cls-1{fill:#2f95d0;}.cls-2{fill:#2678a8;}.cls-3{fill:#18516b;}.cls-4{fill:#fff;}</style></defs><title>Zeichenfläche 1</title><g id="Background"><g id="Layer0_19_FILL" data-name="Layer0 19 FILL"><path class="cls-1" d="M95.71,40q0-8-7.9-8H39.72q-8,0-8,8V88.11q0,7.89,8,7.9H87.81q7.91,0,7.9-7.9V40m-10,2V86h-44V42h44"/><path class="cls-2" d="M85.72,86V42h-44V86h44"/></g></g><g id="Ebene_3" data-name="Ebene 3"><polygon class="cls-3" points="58.5 83.5 58.5 69.5 44.5 69.5 44.5 58.5 58.5 58.5 58.5 44.5 69.5 44.5 69.5 58.5 83.5 58.5 83.5 69.5 69.5 69.5 69.5 83.5 58.5 83.5"/><path class="cls-4" d="M69,45V59H83V69H69V83H59V69H45V59H59V45H69m1-1H58V58H44V70H58V84H70V70H84V58H70V44Z"/></g></svg>